<svg xmlns="http://www.w3.org/2000/svg" xmlns:xlink="http://www.w3.org/1999/xlink" viewBox="0 0 341.74 313.11"><defs><style>.cls-1{isolation:isolate;}.cls-2{fill:url(#linear-gradient);}.cls-3{fill:url(#linear-gradient-2);}.cls-11,.cls-31,.cls-39,.cls-4,.cls-42,.cls-5,.cls-54,.cls-55,.cls-56,.cls-6,.cls-7,.cls-8,.cls-9{opacity:0.8;}.cls-11,.cls-15,.cls-17,.cls-19,.cls-22,.cls-23,.cls-26,.cls-31,.cls-39,.cls-4,.cls-42,.cls-5,.cls-54,.cls-55,.cls-56,.cls-6,.cls-7,.cls-8,.cls-9{mix-blend-mode:multiply;}.cls-4{fill:url(#linear-gradient-3);}.cls-5{fill:url(#linear-gradient-4);}.cls-6{fill:url(#linear-gradient-5);}.cls-7{fill:url(#linear-gradient-6);}.cls-8{fill:url(#linear-gradient-7);}.cls-9{fill:url(#linear-gradient-8);}.cls-10{fill:#cbdfef;}.cls-11{fill:url(#linear-gradient-9);}.cls-12,.cls-20,.cls-30{fill:#fff;}.cls-13{fill:url(#linear-gradient-10);}.cls-14{fill:#809297;}.cls-15{fill:url(#linear-gradient-11);}.cls-16{fill:#8a9ea2;}.cls-17{fill:url(#linear-gradient-12);}.cls-18{fill:#92a7ac;}.cls-19{fill:url(#linear-gradient-13);}.cls-20{opacity:0.1;}.cls-21{fill:#fdc870;}.cls-22{fill:url(#linear-gradient-14);}.cls-23{fill:url(#linear-gradient-15);}.cls-24,.cls-25{mix-blend-mode:overlay;}.cls-24{fill:url(#linear-gradient-16);}.cls-25{fill:url(#linear-gradient-17);}.cls-26{fill:url(#linear-gradient-18);}.cls-27,.cls-28,.cls-36,.cls-37,.cls-45,.cls-46,.cls-59{opacity:0.7;}.cls-27{fill:url(#linear-gradient-19);}.cls-28{fill:url(#linear-gradient-20);}.cls-29{fill:url(#linear-gradient-21);}.cls-30{mix-blend-mode:soft-light;}.cls-31{fill:url(#linear-gradient-22);}.cls-32{fill:url(#linear-gradient-23);}.cls-33{fill:#ffb300;}.cls-34{fill:#ffa000;}.cls-35{fill:#ffca28;}.cls-36{fill:url(#linear-gradient-24);}.cls-37{fill:url(#linear-gradient-25);}.cls-38{fill:url(#linear-gradient-26);}.cls-39{fill:url(#linear-gradient-27);}.cls-40{fill:url(#linear-gradient-28);}.cls-41{fill:#d32f2f;}.cls-42{fill:url(#linear-gradient-29);}.cls-43{fill:#ef5350;}.cls-44,.cls-53,.cls-61,.cls-63{fill:none;stroke:#fff;}.cls-44,.cls-53{stroke-miterlimit:10;}.cls-44,.cls-61{stroke-width:1.04px;}.cls-45{fill:url(#linear-gradient-30);}.cls-46{fill:url(#linear-gradient-31);}.cls-47{fill:url(#linear-gradient-32);}.cls-48{fill:#25284c;}.cls-49{fill:#111638;}.cls-50{fill:#f5f5f5;}.cls-51{fill:#7b92b9;}.cls-52{fill:#6a7ea2;}.cls-53{stroke-width:0.75px;}.cls-54{fill:url(#linear-gradient-33);}.cls-55{fill:url(#linear-gradient-34);}.cls-56{fill:url(#linear-gradient-35);}.cls-57{fill:url(#linear-gradient-36);}.cls-58{fill:url(#linear-gradient-37);}.cls-59{fill:url(#linear-gradient-38);}.cls-60{fill:url(#linear-gradient-39);}.cls-61,.cls-63{stroke-linecap:round;stroke-linejoin:round;}.cls-62{fill:#ffee58;}.cls-63{stroke-width:0.52px;}.cls-64{fill:url(#linear-gradient-40);}</style><linearGradient id="linear-gradient" x1="171.09" y1="306.79" x2="171.09" y2="-2.76" gradientUnits="userSpaceOnUse"><stop offset="0" stop-color="#ac24b9"/><stop offset="1" stop-color="#2e2142"/></linearGradient><linearGradient id="linear-gradient-2" x1="18.1" y1="303.73" x2="1.21" y2="197.3" xlink:href="#linear-gradient"/><linearGradient id="linear-gradient-3" x1="81.75" y1="305.97" x2="84.97" y2="261.74" gradientUnits="userSpaceOnUse"><stop offset="0" stop-color="#fff" stop-opacity="0"/><stop offset="1" stop-color="#662d8d"/></linearGradient><linearGradient id="linear-gradient-4" x1="185.51" y1="307.02" x2="188.73" y2="262.79" xlink:href="#linear-gradient-3"/><linearGradient id="linear-gradient-5" x1="193.57" y1="259.14" x2="49.45" y2="257.38" xlink:href="#linear-gradient-3"/><linearGradient id="linear-gradient-6" x1="151.83" y1="114.78" x2="73.92" y2="202.07" xlink:href="#linear-gradient-3"/><linearGradient id="linear-gradient-7" x1="390.5" y1="245.83" x2="224.97" y2="245.83" xlink:href="#linear-gradient-3"/><linearGradient id="linear-gradient-8" x1="366.28" y1="196.21" x2="189.88" y2="196.21" xlink:href="#linear-gradient-3"/><linearGradient id="linear-gradient-9" x1="162.77" y1="209.86" x2="242.09" y2="209.86" xlink:href="#linear-gradient-3"/><linearGradient id="linear-gradient-10" x1="170.64" y1="116.18" x2="170.64" y2="220.62" gradientUnits="userSpaceOnUse"><stop offset="0" stop-color="#00d4c8"/><stop offset="1" stop-color="#00d2c7" stop-opacity="0"/></linearGradient><linearGradient id="linear-gradient-11" x1="157" y1="155.57" x2="183.5" y2="155.57" gradientUnits="userSpaceOnUse"><stop offset="0" stop-color="#fff" stop-opacity="0"/><stop offset="1" stop-color="#92a7ac"/></linearGradient><linearGradient id="linear-gradient-12" x1="163.25" y1="143.42" x2="188.31" y2="143.42" xlink:href="#linear-gradient-11"/><linearGradient id="linear-gradient-13" x1="159.29" y1="135.91" x2="189.44" y2="135.91" gradientTransform="translate(301 -39.47) rotate(88.07)" xlink:href="#linear-gradient-11"/><linearGradient id="linear-gradient-14" x1="161.52" y1="80.09" x2="195.65" y2="120.47" gradientUnits="userSpaceOnUse"><stop offset="0" stop-color="#fff" stop-opacity="0"/><stop offset="1" stop-color="#fdc870"/></linearGradient><linearGradient id="linear-gradient-15" x1="200.38" y1="126.86" x2="200.38" y2="146.56" gradientTransform="translate(-33.81 -46.35) rotate(-1.56)" xlink:href="#linear-gradient-14"/><linearGradient id="linear-gradient-16" x1="213.44" y1="142.91" x2="183.28" y2="92.25" gradientTransform="translate(-30.59 -51.86)" gradientUnits="userSpaceOnUse"><stop offset="0" stop-color="#fff" stop-opacity="0"/><stop offset="1" stop-color="#fff"/></linearGradient><linearGradient id="linear-gradient-17" x1="149.82" y1="105.38" x2="117.23" y2="89.6" gradientTransform="matrix(1, 0, 0, 1, 0, 0)" xlink:href="#linear-gradient-16"/><linearGradient id="linear-gradient-18" x1="165.87" y1="139.64" x2="193.64" y2="124.68" xlink:href="#linear-gradient-14"/><linearGradient id="linear-gradient-19" x1="85.04" y1="113.66" x2="178.58" y2="113.66" xlink:href="#linear-gradient-10"/><linearGradient id="linear-gradient-20" x1="244.98" y1="113.66" x2="179.32" y2="113.66" xlink:href="#linear-gradient-10"/><linearGradient id="linear-gradient-21" x1="170.64" y1="-17.2" x2="170.64" y2="87.25" xlink:href="#linear-gradient-10"/><linearGradient id="linear-gradient-22" x1="264.08" y1="252.75" x2="317.71" y2="252.75" xlink:href="#linear-gradient-3"/><linearGradient id="linear-gradient-23" x1="269.4" y1="189.41" x2="269.4" y2="260.03" xlink:href="#linear-gradient-10"/><linearGradient id="linear-gradient-24" x1="211.53" y1="194.99" x2="274.77" y2="194.99" xlink:href="#linear-gradient-10"/><linearGradient id="linear-gradient-25" x1="319.67" y1="194.99" x2="275.28" y2="194.99" xlink:href="#linear-gradient-10"/><linearGradient id="linear-gradient-26" x1="269.4" y1="113.79" x2="269.4" y2="184.41" xlink:href="#linear-gradient-10"/><linearGradient id="linear-gradient-27" x1="66.45" y1="153.02" x2="120.08" y2="153.02" xlink:href="#linear-gradient-3"/><linearGradient id="linear-gradient-28" x1="71.77" y1="89.68" x2="71.77" y2="160.3" xlink:href="#linear-gradient-10"/><linearGradient id="linear-gradient-29" x1="69.31" y1="70.05" x2="90.21" y2="110.28" xlink:href="#linear-gradient-3"/><linearGradient id="linear-gradient-30" x1="13.9" y1="95.25" x2="77.14" y2="95.25" xlink:href="#linear-gradient-10"/><linearGradient id="linear-gradient-31" x1="122.04" y1="95.25" x2="77.64" y2="95.25" xlink:href="#linear-gradient-10"/><linearGradient id="linear-gradient-32" x1="71.77" y1="14.06" x2="71.77" y2="84.68" xlink:href="#linear-gradient-10"/><linearGradient id="linear-gradient-33" x1="70" y1="185.82" x2="107.88" y2="261.59" xlink:href="#linear-gradient-3"/><linearGradient id="linear-gradient-34" x1="95.79" y1="249.58" x2="198.74" y2="249.58" xlink:href="#linear-gradient-3"/><linearGradient id="linear-gradient-35" x1="95.79" y1="229.46" x2="198.74" y2="229.46" xlink:href="#linear-gradient-3"/><linearGradient id="linear-gradient-36" x1="108.01" y1="189.97" x2="105.36" y2="216.07" xlink:href="#linear-gradient-14"/><linearGradient id="linear-gradient-37" x1="99.08" y1="205.97" x2="92.43" y2="218.58" gradientUnits="userSpaceOnUse"><stop offset="0" stop-color="#ba68c8" stop-opacity="0"/><stop offset="1" stop-color="#ba68c8"/></linearGradient><linearGradient id="linear-gradient-38" x1="114.7" y1="215.78" x2="108.51" y2="227.52" xlink:href="#linear-gradient-10"/><linearGradient id="linear-gradient-39" x1="124.46" y1="215.54" x2="118.48" y2="235" gradientUnits="userSpaceOnUse"><stop offset="0" stop-color="#ef5350"/><stop offset="1" stop-color="#ef5350" stop-opacity="0"/></linearGradient><linearGradient id="linear-gradient-40" x1="-1005.55" y1="163.26" x2="-1005.55" y2="72.56" gradientTransform="translate(-724.41 182.94) rotate(-177.48)" xlink:href="#linear-gradient"/></defs><title>Mesa de trabajo 25</title><g class="cls-1"><g id="Object"><path class="cls-2" d="M339.11,230.66q-.74,4.25-1.71,8.44-.75,3.19-1.62,6.35a130.21,130.21,0,0,1-14.13,33.44c-6.46,10.49-14.76,19.6-25.32,25.94a76.34,76.34,0,0,1-18.1,7.74H62.63C41.78,301.25,23.48,281.33,27.46,258c3.46-20.3,6.71-40.55-.41-59.31-5.18-13.61-15.37-24.8-21.11-38.19C-8.27,127.28,9.6,97.2,36.1,78.75c1-.67,1.93-1.32,2.91-2l.7-.45c1.08-.69,2.15-1.41,3.2-2.14,2.28-1.59,4.48-3.26,6.64-5h0c1.62-1.32,3.21-2.67,4.78-4.07.37-.32.75-.65,1.11-1q3.24-2.91,6.37-6C62.92,57.07,64,56,65.1,54.89c8.48-8.51,16.66-17.42,25.62-25.18C99.26,22.32,108.51,16,119.41,12a102.53,102.53,0,0,1,20.88-5.18A107.27,107.27,0,0,1,220,27.73c1.11.85,2.22,1.73,3.32,2.63C235.06,40,245.85,52.18,250.62,66.3c6,17.77,14.87,34.92,31,45.49,13.33,8.71,26,14.49,36.57,27.15a93.23,93.23,0,0,1,9.94,14.38,97.08,97.08,0,0,1,5.92,12.62,103.88,103.88,0,0,1,5,17.73A130.64,130.64,0,0,1,339.11,230.66Z"/><path class="cls-3" d="M3.54,266.68c-.34,5.89,0,12.09,3,17.2,2.48,4.29,8.29,7.57,12.31,4.67,3.05-2.2,3.27-6.71,2.25-10.33s-3-7-3.24-10.77c-.44-5.9,6.54-21-3.95-21.71C4.43,245.13,3.87,260.85,3.54,266.68Z"/><ellipse class="cls-4" cx="83.09" cy="287.56" rx="20.34" ry="8.01"/><ellipse class="cls-5" cx="186.85" cy="288.62" rx="20.34" ry="8.01"/><polygon class="cls-6" points="69.59 252.28 87.98 252.28 128.86 271.32 123.52 283.37 142.66 283.37 184.24 257.58 133.33 239.77 103.08 232.95 69.59 252.28"/><rect class="cls-7" x="73.38" y="113.16" width="100.79" height="66.12"/><path class="cls-8" d="M339.11,212.77v17.89q-.74,4.25-1.71,8.44-.75,3.19-1.62,6.35a130.21,130.21,0,0,1-14.13,33.44H269V212.77Z"/><path class="cls-9" d="M339.11,183.67v47q-.74,4.25-1.71,8.44h-147V153.32H328.16a97.08,97.08,0,0,1,5.92,12.62A103.88,103.88,0,0,1,339.11,183.67Z"/><path class="cls-10" d="M223.39,218.23V171H117.88v47.2h0c0,7.8,5.15,15.59,15.45,21.54,20.61,11.9,54,11.9,74.61,0C218.24,233.82,223.4,226,223.39,218.23Z"/><path class="cls-11" d="M223.39,218.23V171H117.88v47.2h0c0,7.8,5.15,15.59,15.45,21.54,20.61,11.9,54,11.9,74.61,0C218.24,233.82,223.4,226,223.39,218.23Z"/><ellipse class="cls-12" cx="170.64" cy="171.03" rx="52.76" ry="30.46"/><ellipse class="cls-13" cx="170.64" cy="165.11" rx="52.76" ry="30.46"/><path class="cls-14" d="M183.5,156c-.18,5.5-6.27,9.76-13.58,9.52s-13.1-4.91-12.92-10.41,6.27-9.76,13.59-9.51S183.69,150.51,183.5,156Z"/><path class="cls-15" d="M183.5,156c-.18,5.5-6.27,9.76-13.58,9.52s-13.1-4.91-12.92-10.41,6.27-9.76,13.59-9.51S183.69,150.51,183.5,156Z"/><path class="cls-16" d="M192.28,144.15c-.22,6.71-10.09,11.82-22,11.42S148.81,149.4,149,142.7s10.09-11.82,22-11.42S192.51,137.44,192.28,144.15Z"/><path class="cls-17" d="M192.28,144.15c-.22,6.71-10.09,11.82-22,11.42S148.81,149.4,149,142.7s10.09-11.82,22-11.42S192.51,137.44,192.28,144.15Z"/><ellipse class="cls-18" cx="170.91" cy="135.91" rx="12.15" ry="21.63" transform="translate(29.34 302.16) rotate(-88.07)"/><ellipse class="cls-19" cx="170.91" cy="135.91" rx="12.15" ry="21.63" transform="translate(29.34 302.16) rotate(-88.07)"/><path class="cls-20" d="M152.55,138.67c-.6.3-1.46-.21-1.92-1.14s-.36-1.93.24-2.23,1.46.22,1.92,1.15S153.15,138.38,152.55,138.67Z"/><path class="cls-20" d="M153.72,140.47a.7.7,0,1,1,.4-1A.74.74,0,0,1,153.72,140.47Z"/><path class="cls-20" d="M152.62,146.76c-.6.3-1.46-.22-1.92-1.15s-.36-1.92.24-2.22,1.45.22,1.92,1.15S153.22,146.46,152.62,146.76Z"/><path class="cls-20" d="M153.79,148.56a.7.7,0,1,1-.62-1.24.75.75,0,0,1,1,.26A.76.76,0,0,1,153.79,148.56Z"/><path class="cls-21" d="M210,85.22c.14-21.8-17.39-36.3-39.12-36.44s-39.45,14.14-39.59,35.94c-.13,21.36,10.78,24.59,16.35,35.57a10.79,10.79,0,0,1,1.11,6.49c-.06,8.3,9,13,21.55,13.07S192,135.35,192,127.06a10.82,10.82,0,0,1,1.19-6.48C198.9,109.67,209.85,106.58,210,85.22Z"/><path class="cls-22" d="M210,85.22c0,1.33-.06,2.59-.14,3.79-.07.91-.17,1.8-.28,2.65a33.19,33.19,0,0,1-3.11,10.6c0,.06-.06.12-.09.17-3.6,7.12-9.12,10.9-12.77,17.41-.14.24-.28.49-.41.74a10.73,10.73,0,0,0-1.19,6.48,7.62,7.62,0,0,1-.05,1c0,.15,0,.3,0,.43a1.46,1.46,0,0,1,0,.22c0,.14-.05.28-.08.41a2.71,2.71,0,0,1-.09.41,4.58,4.58,0,0,1-.15.56.08.08,0,0,1,0,0,8.17,8.17,0,0,1-.62,1.5.18.18,0,0,1,0,.09c-2.14,4.1-7.21,6.74-14,7.72a42.34,42.34,0,0,1-6.63.44c-12.58-.08-21.6-4.77-21.55-13.07a10.7,10.7,0,0,0-1.11-6.49c-5.57-11-16.48-14.21-16.35-35.57.14-21.8,17.85-36.07,39.58-35.93S210.13,63.42,210,85.22Z"/><path class="cls-23" d="M183.09,104.09c-.69-4.14-5.34-9.62-8.75-4.23-2.36,3.73-2.11,9-2.11,13.31v.27l-1.16.06a1,1,0,0,0-.31,0,1.31,1.31,0,0,0-.31-.06c-.38,0-.76,0-1.15-.07v-.25c.06-3.77.07-7.63-1.07-11.22-1.79-5.67-7-5.42-9.1-.09-2,5.08-.13,9,3.35,11.31a14.19,14.19,0,0,0,4.75,2c0,.1,0,.2,0,.29,0,2.81,0,5.62-.05,8.43,0,2.5,0,5,0,7.5,0,1.13,0,2.25,0,3.37l0,5c.67.05,1.36.09,2.05.11l0-5.15,0-3.41c0-2.5,0-5,0-7.51,0-2.76,0-5.53.05-8.29.38,0,.77.07,1.16.08a1.06,1.06,0,0,0,.31,0,.73.73,0,0,0,.3,0c.39,0,.78,0,1.17-.06,0,2.77,0,5.55-.05,8.32,0,2.51,0,5,0,7.52,0,1.12,0,2.23,0,3.35,0,.26,0,.53,0,.79,0,1.45,0,2.89,0,4.35h.09s0,0,0,0h.14l.67,0,.58,0,.55,0,0-5c0-.49,0-1,0-1.47s0-1.17,0-1.75c0-2.51,0-5,.05-7.53,0-2.83,0-5.67.05-8.5v-.27C179.72,114.14,184.16,110.53,183.09,104.09Zm-22.66,1.82c0-2.27,2.3-9.07,5.14-5.07,2.19,3.09,1.89,8.12,1.72,12.28C163.62,112.35,160.47,110.27,160.43,105.91Zm13.81,7.26c-.12-4.17-.36-9.2,1.87-12.26,2.9-4,5.13,2.86,5.08,5.13C181.09,110.4,177.91,112.44,174.24,113.17Z"/><ellipse class="cls-24" cx="169.78" cy="69.09" rx="27.58" ry="15.92" transform="translate(-1.82 4.66) rotate(-1.56)"/><path class="cls-25" d="M136.74,96.16a44.18,44.18,0,0,0,8.91,14.35c3.8,4.3,8.36,8.57,9.15,14.26a6.77,6.77,0,0,0,.53,2.33,1.68,1.68,0,0,0,2,.88,2.16,2.16,0,0,0,.84-.88,11.62,11.62,0,0,0,1.49-8.48c-1-4.63-4.56-8-7.55-11.41a27.75,27.75,0,0,1-6.32-12c-.58-2.74-.76-5.55-1.35-8.29a9.54,9.54,0,0,0-1.46-3.7,3.79,3.79,0,0,0-6.75.46,9.11,9.11,0,0,0-.88,4.13A24.17,24.17,0,0,0,136.74,96.16Z"/><path class="cls-26" d="M210,85.22c0,1.32-.05,2.58-.14,3.79-.07.91-.17,1.8-.28,2.65a35.94,35.94,0,0,1-3.11,10.6c0,.06-.06.12-.09.17-3.6,7.12-9.12,10.9-12.77,17.41-.14.24-.28.49-.41.74a10.73,10.73,0,0,0-1.19,6.48,7.62,7.62,0,0,1-.05,1c0,.15,0,.3,0,.43a1.46,1.46,0,0,1,0,.22c0,.14-.05.28-.08.41a2.71,2.71,0,0,1-.09.41,4.58,4.58,0,0,1-.15.56.08.08,0,0,1,0,0,8.17,8.17,0,0,1-.62,1.5.18.18,0,0,1,0,.09,7.83,7.83,0,0,1,1.67,4.95,7.46,7.46,0,0,1-1.19,3.72,7.32,7.32,0,0,1,.93,3.79c-.13,4-3.7,7.44-9.1,9.47a7.38,7.38,0,0,1,.32,2.39c-.19,5.5-6.27,9.76-13.58,9.52-.42,0-.82,0-1.23-.09,1.59-1.91,3.38-3.74,4.29-5.55,3.17-6.27,3.56-13.59,3.94-20.48,0-.13,0-.26,0-.39q.48-8.72.95-17.42a5.38,5.38,0,0,1,.3-1.7c.68-1.58,2.69-1.94,4.38-2.34C200.94,113.24,208.42,99.6,210,85.22Z"/><path class="cls-21" d="M208.35,43.42a3.52,3.52,0,1,1-3.51-3.51A3.52,3.52,0,0,1,208.35,43.42Z"/><path class="cls-21" d="M208.35,140.57a3.52,3.52,0,1,1-3.51-3.52A3.51,3.51,0,0,1,208.35,140.57Z"/><circle class="cls-21" cx="141.16" cy="125.38" r="3.52"/><circle class="cls-21" cx="212.21" cy="33.03" r="2.22"/><circle class="cls-21" cx="208.35" cy="120.69" r="2.22"/><circle class="cls-21" cx="146.89" cy="31.74" r="2.22"/><circle class="cls-21" cx="214.43" cy="148.08" r="2.22"/><circle class="cls-21" cx="135.35" cy="159.45" r="2.22"/><path class="cls-27" d="M223.39,165.11V31.74c0,7.79-5.15,15.59-15.45,21.54-20.6,11.89-54,11.89-74.61,0-10.3-6-15.45-13.75-15.45-21.54V165.11h0c0,7.8,5.15,15.6,15.45,21.54,20.61,11.9,54,11.9,74.61,0C218.24,180.7,223.4,172.91,223.39,165.11Z"/><path class="cls-28" d="M223.39,165.11V31.74c0,7.79-5.15,15.59-15.45,21.54-20.6,11.89-54,11.89-74.61,0-10.3-6-15.45-13.75-15.45-21.54V165.11h0c0,7.8,5.15,15.6,15.45,21.54,20.61,11.9,54,11.9,74.61,0C218.24,180.7,223.4,172.91,223.39,165.11Z"/><ellipse class="cls-29" cx="170.64" cy="31.74" rx="52.76" ry="30.46"/><path class="cls-30" d="M125.78,116.88h0a7.19,7.19,0,0,1-3.6-6.22V62.15a1.39,1.39,0,0,1,2.08-1.2h0A7.37,7.37,0,0,1,128,67.34v48.29A1.44,1.44,0,0,1,125.78,116.88Z"/><path class="cls-30" d="M125.78,138.71h0a7.21,7.21,0,0,1-3.6-6.23v-6.89a1.39,1.39,0,0,1,2.08-1.2h0a7.36,7.36,0,0,1,3.69,6.39v6.67A1.45,1.45,0,0,1,125.78,138.71Z"/><path class="cls-10" d="M305.07,258.41V226.5H233.73v31.91h0c0,5.27,3.48,10.55,10.45,14.57,13.93,8,36.52,8,50.45,0C301.59,269,305.07,263.68,305.07,258.41Z"/><path class="cls-31" d="M305.07,258.41V226.5H233.73v31.91h0c0,5.27,3.48,10.55,10.45,14.57,13.93,8,36.52,8,50.45,0C301.59,269,305.07,263.68,305.07,258.41Z"/><ellipse class="cls-12" cx="269.4" cy="226.5" rx="35.67" ry="20.59"/><ellipse class="cls-32" cx="269.4" cy="222.5" rx="35.67" ry="20.59"/><path class="cls-21" d="M295,165.11a2.38,2.38,0,1,1-2.37-2.37A2.37,2.37,0,0,1,295,165.11Z"/><circle class="cls-21" cx="290.25" cy="216.29" r="2.38"/><path class="cls-21" d="M251.85,198a2.38,2.38,0,1,1-2.38-2.38A2.38,2.38,0,0,1,251.85,198Z"/><path class="cls-21" d="M289.37,155.06a1.5,1.5,0,1,1-1.5-1.5A1.5,1.5,0,0,1,289.37,155.06Z"/><path class="cls-21" d="M282.69,222.5a1.5,1.5,0,1,1-1.5-1.5A1.5,1.5,0,0,1,282.69,222.5Z"/><path class="cls-21" d="M250.71,152.91a1.5,1.5,0,1,1-1.5-1.5A1.5,1.5,0,0,1,250.71,152.91Z"/><path class="cls-21" d="M300.51,196.94a1.5,1.5,0,1,1-1.5-1.5A1.5,1.5,0,0,1,300.51,196.94Z"/><path class="cls-21" d="M247,218.67a1.5,1.5,0,1,1-1.5-1.5A1.5,1.5,0,0,1,247,218.67Z"/><path class="cls-33" d="M291.78,191.18c0,.11,0,.24,0,.35a21.61,21.61,0,0,1-.38,3.91,14.23,14.23,0,0,1-.53,2.07,11.21,11.21,0,0,1-4.49,6.13h0l-.18.11c-.11.05-.22.12-.34.19l-5.51,3.2L279.11,205a19.17,19.17,0,0,1-6.93-2.52c-10.83-6.24-19.59-21.45-19.59-33.94a23.17,23.17,0,0,1,.27-3.55c.11-.71.27-1.38.43-2s.32-1,.5-1.5l-1.3-2.23,5.57-3.21.56-.32.31-.17v0a11.63,11.63,0,0,1,8.07-.51,17.87,17.87,0,0,1,2,.64,22.25,22.25,0,0,1,3.21,1.54l.25.15c.48.28,1,.59,1.44.92a26.92,26.92,0,0,1,2.77,2.1c.4.34.81.69,1.2,1.06.8.73,1.57,1.51,2.33,2.34.34.37.69.77,1,1.17.7.81,1.36,1.66,2,2.52.29.42.59.83.87,1.26.6.86,1.18,1.77,1.72,2.7.26.44.52.88.76,1.32q.78,1.41,1.44,2.85c.22.47.43.92.62,1.39.43,1,.81,2,1.16,3,.18.49.33,1,.48,1.49a29.58,29.58,0,0,1,.81,3.21c.13.52.22,1.06.31,1.58a32.22,32.22,0,0,1,.37,3.47C291.77,190.26,291.78,190.73,291.78,191.18Z"/><path class="cls-34" d="M269,155.7,252.86,165l-1.3.75-.4-1.53,2.13-1.24L267,155.06A17.87,17.87,0,0,1,269,155.7Z"/><path class="cls-34" d="M273.87,158.31l-19.52,11.27-.4-1.53,18.48-10.66C272.91,157.67,273.39,158,273.87,158.31Z"/><path class="cls-34" d="M277.84,161.47l-20.69,11.94-.39-1.53,19.88-11.47C277,160.75,277.45,161.1,277.84,161.47Z"/><path class="cls-34" d="M281.19,165,260,177.23l-.4-1.53,20.61-11.89C280.51,164.18,280.86,164.58,281.19,165Z"/><path class="cls-34" d="M284.07,168.76l-21.31,12.3-.39-1.53,20.83-12C283.49,167.92,283.79,168.33,284.07,168.76Z"/><path class="cls-34" d="M286.55,172.78l-21,12.11-.4-1.53,20.62-11.9C286.05,171.9,286.31,172.34,286.55,172.78Z"/><path class="cls-34" d="M288.61,177l-20.25,11.7-.4-1.53,20-11.56C288.21,176.1,288.42,176.55,288.61,177Z"/><path class="cls-34" d="M290.25,181.53l-19.09,11-.39-1.53,19-11C290,180.53,290.1,181,290.25,181.53Z"/><path class="cls-34" d="M291.37,186.32,274,196.38l-.4-1.53,17.49-10.11C291.19,185.26,291.28,185.8,291.37,186.32Z"/><path class="cls-34" d="M291.78,191.18c0,.11,0,.24,0,.35l-15,8.66-.4-1.53,15.37-8.87C291.77,190.26,291.78,190.73,291.78,191.18Z"/><path class="cls-34" d="M291.39,195.44a14.23,14.23,0,0,1-.53,2.07L279.56,204l-.38-1.53Z"/><ellipse class="cls-35" cx="266.62" cy="183.08" rx="16" ry="27.71" transform="translate(-55.82 157.84) rotate(-30)"/><path class="cls-33" d="M270.2,167.47h-2.05a27.51,27.51,0,0,1,2.16,2l1.22-.71C271.1,168.34,270.65,167.89,270.2,167.47ZM252.86,165s0,.09,0,.13l.43.12a6.58,6.58,0,0,1,.54-.8Zm17.34,2.47h-2.05a27.51,27.51,0,0,1,2.16,2l1.22-.71C271.1,168.34,270.65,167.89,270.2,167.47Zm-17.36-2.34.43.12a6.58,6.58,0,0,1,.54-.8l-.95.55S252.85,165.09,252.84,165.13Zm29.74,26.27c-.06-.54-.14-1.08-.23-1.62a33.18,33.18,0,0,0-.75-3.26q-.21-.75-.45-1.5c-.33-1-.71-2-1.13-3-.19-.47-.4-1-.61-1.41-.44-1-.92-1.93-1.43-2.86-.25-.45-.5-.89-.76-1.32-.54-.92-1.12-1.82-1.73-2.69-.28-.42-.58-.83-.89-1.24-.64-.88-1.32-1.72-2-2.52-.35-.4-.7-.78-1.05-1.15s-.88-.91-1.33-1.33-.71-.66-1.07-1-.82-.71-1.24-1a25.25,25.25,0,0,0-2.93-2l-.06,0c-.52-.3-1-.57-1.54-.8a14.17,14.17,0,0,0-4.14-1.3,7.84,7.84,0,0,0-1.35-.11,7.57,7.57,0,0,0-1.91.23,6,6,0,0,0-2.64,1.45l-.17.17h0a7.15,7.15,0,0,0-1.24,1.74c-.14.26-.26.54-.38.81h0a16.83,16.83,0,0,0-1.05,6.13c0,10.71,7.5,24.16,16.65,30.18.4.28.81.53,1.22.77a14.56,14.56,0,0,0,7,2.22,7.44,7.44,0,0,0,2-.26,5.77,5.77,0,0,0,2.07-1,4.81,4.81,0,0,0,.81-.75,7.43,7.43,0,0,0,1.14-1.68h0a13.57,13.57,0,0,0,1.22-4.39,18.26,18.26,0,0,0,.13-1.83c0-.21,0-.41,0-.59A23.43,23.43,0,0,0,282.58,191.4Zm-1.48,6.29a7.81,7.81,0,0,1-2.6,4.91,5.14,5.14,0,0,1-3.13,1,8.64,8.64,0,0,1-1.4-.12h0a14.14,14.14,0,0,1-4.21-1.53h0c-.23-.12-.47-.24-.7-.38-9.32-5.38-17.19-19-17.19-29.76a15.56,15.56,0,0,1,.84-5.28,7.83,7.83,0,0,1,.59-1.24,6.58,6.58,0,0,1,.54-.8h0a4.86,4.86,0,0,1,3.07-1.77h0a7.25,7.25,0,0,1,1-.07,10.92,10.92,0,0,1,4,.88,18,18,0,0,1,1.68.79c.22.11.43.23.65.36a23.36,23.36,0,0,1,2.38,1.58c.43.32.86.66,1.28,1a1.5,1.5,0,0,1,.27.24h0a27.51,27.51,0,0,1,2.16,2c.37.37.72.75,1.06,1.14.71.79,1.39,1.63,2.05,2.5.3.4.6.82.89,1.24.61.87,1.19,1.77,1.73,2.69.26.43.52.87.76,1.32.51.94,1,1.9,1.42,2.87.22.46.42.93.61,1.4.42,1,.79,2,1.1,3.05h0c.17.51.31,1,.45,1.5a30.44,30.44,0,0,1,.69,3.28c.09.55.16,1.1.21,1.64.07.76.11,1.51.11,2.24,0,.4,0,.88-.05,1.41A17.15,17.15,0,0,1,281.1,197.69ZM252.86,165s0,.09,0,.13l.43.12a6.58,6.58,0,0,1,.54-.8Zm17.34,2.47h-2.05a27.51,27.51,0,0,1,2.16,2l1.22-.71C271.1,168.34,270.65,167.89,270.2,167.47Z"/><path class="cls-33" d="M272.08,186.57a9.64,9.64,0,0,0-.71-1.35,12.62,12.62,0,0,0-2.08-2.48c-.4-.37-.81-.73-1.23-1.05s-.62-.48-.93-.7a9,9,0,0,1-1.76-1.44,1.89,1.89,0,0,1-.5-1.26.73.73,0,0,1,0-.22c.07-.27.29-.37.59-.34a3.14,3.14,0,0,1,1.23.46q.24.13.48.3a9.06,9.06,0,0,1,2.46,2.28c.09.11.17.22.25.34l1.51-1.36,0,0h0l.37-.33a16.43,16.43,0,0,0-2-2.43,14.79,14.79,0,0,0-1.19-1.06l-.37-.29v-2l-1-.59-1.53-.88-.72-.42v2.05a6.08,6.08,0,0,0-1.5-.35h0a2,2,0,0,0-2.28,1.32,3.84,3.84,0,0,0-.2,1.31c0,.19,0,.37,0,.55a7.72,7.72,0,0,0,1.7,4.38h0l0,.05a13.8,13.8,0,0,0,2.39,2.31c.43.34.89.67,1.35,1l.05,0a5.14,5.14,0,0,1,2.2,2.35,1,1,0,0,1,.08.4.6.6,0,0,1-.72.68,3.26,3.26,0,0,1-1.42-.52,10.86,10.86,0,0,1-4-4.08l-2.12,1.58A14.55,14.55,0,0,0,265,190v2.12l3.28,1.89v-2.18a4.67,4.67,0,0,0,2.79.33,2.25,2.25,0,0,0,1.56-2.23h0a4.63,4.63,0,0,0,0-.54A7.27,7.27,0,0,0,272.08,186.57Z"/><path class="cls-36" d="M305.07,222.5V146.88c0,5.27-3.48,10.54-10.44,14.56-13.93,8-36.52,8-50.45,0-7-4-10.45-9.29-10.45-14.56V222.5h0c0,5.27,3.48,10.54,10.45,14.56,13.93,8.05,36.52,8.05,50.45,0C301.59,233,305.07,227.77,305.07,222.5Z"/><path class="cls-37" d="M305.07,222.5V146.88c0,5.27-3.48,10.54-10.44,14.56-13.93,8-36.52,8-50.45,0-7-4-10.45-9.29-10.45-14.56V222.5h0c0,5.27,3.48,10.54,10.45,14.56,13.93,8.05,36.52,8.05,50.45,0C301.59,233,305.07,227.77,305.07,222.5Z"/><ellipse class="cls-38" cx="269.4" cy="146.88" rx="35.67" ry="20.59"/><path class="cls-30" d="M239.07,189.89h0a4.87,4.87,0,0,1-2.43-4.21V163.83a.94.94,0,0,1,1.41-.81h0a5,5,0,0,1,2.49,4.32V189A1,1,0,0,1,239.07,189.89Z"/><path class="cls-30" d="M239.07,204.64h0a4.86,4.86,0,0,1-2.43-4.21v-4.66a.94.94,0,0,1,1.41-.81h0a5,5,0,0,1,2.49,4.32v4.52A1,1,0,0,1,239.07,204.64Z"/><path class="cls-10" d="M107.44,158.68V126.77H36.1v31.91h0c0,5.27,3.48,10.54,10.45,14.57,13.93,8,36.51,8,50.45,0C104,169.22,107.44,164,107.44,158.68Z"/><path class="cls-39" d="M107.44,158.68V126.77H36.1v31.91h0c0,5.27,3.48,10.54,10.45,14.57,13.93,8,36.51,8,50.45,0C104,169.22,107.44,164,107.44,158.68Z"/><ellipse class="cls-12" cx="71.77" cy="126.77" rx="35.67" ry="20.59"/><ellipse class="cls-40" cx="71.77" cy="122.77" rx="35.67" ry="20.59"/><circle class="cls-41" cx="95" cy="65.38" r="2.38"/><circle class="cls-41" cx="92.62" cy="116.56" r="2.38"/><path class="cls-41" d="M54.22,98.28a2.38,2.38,0,1,1-2.38-2.38A2.38,2.38,0,0,1,54.22,98.28Z"/><path class="cls-41" d="M91.74,55.33a1.5,1.5,0,1,1-1.5-1.5A1.5,1.5,0,0,1,91.74,55.33Z"/><path class="cls-41" d="M85.06,122.77a1.5,1.5,0,1,1-1.5-1.5A1.5,1.5,0,0,1,85.06,122.77Z"/><path class="cls-41" d="M53.07,53.18a1.5,1.5,0,1,1-1.5-1.5A1.5,1.5,0,0,1,53.07,53.18Z"/><path class="cls-41" d="M102.88,97.21a1.5,1.5,0,1,1-1.5-1.5A1.5,1.5,0,0,1,102.88,97.21Z"/><path class="cls-41" d="M49.41,118.94a1.5,1.5,0,1,1-1.5-1.5A1.5,1.5,0,0,1,49.41,118.94Z"/><path class="cls-41" d="M94.15,91.45c0,.11,0,.24,0,.35a21.61,21.61,0,0,1-.38,3.91,13.78,13.78,0,0,1-.53,2.06,11.14,11.14,0,0,1-4.49,6.13v0l-.18.11c-.11,0-.22.12-.34.19l-5.51,3.2-1.24-2.14a19.17,19.17,0,0,1-6.93-2.52C63.72,96.52,55,81.31,55,68.82a22.19,22.19,0,0,1,.27-3.56,19.78,19.78,0,0,1,.43-2c.15-.52.32-1,.5-1.5l-1.3-2.23,5.57-3.21L61,56l.3-.18,0,0a11.57,11.57,0,0,1,8.07-.51,16.53,16.53,0,0,1,2,.64,21.71,21.71,0,0,1,3.21,1.54l.24.15c.49.28,1,.59,1.45.92A28.05,28.05,0,0,1,79,60.68c.4.34.81.69,1.2,1.06.8.73,1.57,1.51,2.33,2.34.34.37.69.77,1,1.17.7.81,1.36,1.65,2,2.52.29.41.59.83.86,1.25.61.87,1.19,1.78,1.73,2.7.26.45.52.89.75,1.33.53.93,1,1.88,1.45,2.85.22.47.43.92.62,1.39.43,1,.81,2,1.16,3,.18.49.33,1,.48,1.48A30.17,30.17,0,0,1,93.43,85c.13.53.22,1.07.31,1.59a32.22,32.22,0,0,1,.37,3.47C94.14,90.53,94.15,91,94.15,91.45Z"/><path class="cls-42" d="M94.15,91.45c0,.11,0,.24,0,.35a21.61,21.61,0,0,1-.38,3.91,13.78,13.78,0,0,1-.53,2.06,11.14,11.14,0,0,1-4.49,6.13v0l-.18.11c-.11,0-.22.12-.34.19l-5.51,3.2-1.24-2.14a19.17,19.17,0,0,1-6.93-2.52C63.72,96.52,55,81.31,55,68.82a22.19,22.19,0,0,1,.27-3.56,19.78,19.78,0,0,1,.43-2c.15-.52.32-1,.5-1.5l-1.3-2.23,5.57-3.21L61,56l.3-.18,0,0a11.57,11.57,0,0,1,8.07-.51,16.53,16.53,0,0,1,2,.64,21.71,21.71,0,0,1,3.21,1.54l.24.15c.49.28,1,.59,1.45.92A28.05,28.05,0,0,1,79,60.68c.4.34.81.69,1.2,1.06.8.73,1.57,1.51,2.33,2.34.34.37.69.77,1,1.17.7.81,1.36,1.65,2,2.52.29.41.59.83.86,1.25.61.87,1.19,1.78,1.73,2.7.26.45.52.89.75,1.33.53.93,1,1.88,1.45,2.85.22.47.43.92.62,1.39.43,1,.81,2,1.16,3,.18.49.33,1,.48,1.48A30.17,30.17,0,0,1,93.43,85c.13.53.22,1.07.31,1.59a32.22,32.22,0,0,1,.37,3.47C94.14,90.53,94.15,91,94.15,91.45Z"/><ellipse class="cls-43" cx="68.99" cy="83.34" rx="16" ry="27.71" transform="translate(-32.43 45.66) rotate(-30)"/><ellipse class="cls-44" cx="68.99" cy="83.34" rx="12.62" ry="21.85" transform="translate(-32.43 45.66) rotate(-30)"/><ellipse class="cls-44" cx="68.99" cy="83.34" rx="8.8" ry="15.24" transform="translate(-32.43 45.66) rotate(-30)"/><path class="cls-44" d="M75.37,87c0,4.06-2.86,5.71-6.38,3.68a14.12,14.12,0,0,1-6.38-11C62.61,75.6,65.47,74,69,76A14.1,14.1,0,0,1,75.37,87Z"/><path class="cls-12" d="M71.5,84.79c0,1.6-1.12,2.25-2.51,1.45a5.52,5.52,0,0,1-2.51-4.34c0-1.6,1.12-2.25,2.51-1.45A5.52,5.52,0,0,1,71.5,84.79Z"/><path class="cls-45" d="M107.44,122.77V47.15c0,5.27-3.48,10.54-10.44,14.56-13.94,8-36.52,8-50.45,0-7-4-10.45-9.29-10.45-14.56v75.62h0c0,5.27,3.48,10.54,10.45,14.56,13.93,8,36.51,8,50.45,0C104,133.31,107.44,128,107.44,122.77Z"/><path class="cls-46" d="M107.44,122.77V47.15c0,5.27-3.48,10.54-10.44,14.56-13.94,8-36.52,8-50.45,0-7-4-10.45-9.29-10.45-14.56v75.62h0c0,5.27,3.48,10.54,10.45,14.56,13.93,8,36.51,8,50.45,0C104,133.31,107.44,128,107.44,122.77Z"/><ellipse class="cls-47" cx="71.77" cy="47.15" rx="35.67" ry="20.59"/><path class="cls-30" d="M41.44,90.16h0A4.88,4.88,0,0,1,39,86V64.1a.94.94,0,0,1,1.41-.81h0a5,5,0,0,1,2.49,4.32v21.7A1,1,0,0,1,41.44,90.16Z"/><path class="cls-30" d="M41.44,104.91h0A4.87,4.87,0,0,1,39,100.7V96a.94.94,0,0,1,1.41-.81h0a5,5,0,0,1,2.49,4.32v4.51A1,1,0,0,1,41.44,104.91Z"/><path class="cls-48" d="M180.58,213.05s-5.88,6.27-6.27,12.49l1.15,2.46,2.37-1.73s1.68-8.19,4.74-10.63Z"/><path class="cls-49" d="M194.4,286.42s.41,3.88-1.49,3.68c-2.21-.24-9-4.84-7.52-6.29s7.23,1.17,7.23,1.17Z"/><path class="cls-49" d="M182.24,292.16s.41,3.87-1.49,3.67c-2.2-.23-9.05-4.84-7.52-6.29s7.23,1.18,7.23,1.18Z"/><rect class="cls-50" x="183.98" y="195.56" width="4.06" height="5.73"/><path class="cls-48" d="M179.65,226.47s-6.53,14.9-1.62,66.06a.8.8,0,0,0,.4.63c.86.5,3,1.37,4.15-1.52a.93.93,0,0,0,0-.24l4.26-53.58c0-.87.48-.9.57,0l2.61,49a.92.92,0,0,0,.6.82c1.14.43,3.65.93,4.11-2.67,0,0,4.44-53-.74-60.19Z"/><path class="cls-49" d="M194,223.09a2.92,2.92,0,0,1-.43.61c-1.49,1.52-5.5,4.26-13.48,1.41a1.44,1.44,0,0,1-.48-.28v1.64a1.44,1.44,0,0,0,.48.28c8,2.86,12,.11,13.48-1.41a2.92,2.92,0,0,0,.43-.61Z"/><path class="cls-12" d="M210.27,174.48s0-3.47.47-3.54.32,1.1.32,1.1.39-2.58.95-2.43c.2,0,0,1.63,0,1.63s.24-.91,1.68,0c.45.28.34,1.12-1.37,3.82Z"/><path class="cls-51" d="M193.18,197.75s12.15-1.05,16.95-23.54a2.77,2.77,0,0,1,2.33.82s-.72,27-17.53,32.23Z"/><path class="cls-52" d="M184,199.35l4.06-.93,6.4-.83c1.57-.21,2.69,2.06,2.81,4.49.21,4.62-2.89,20.32-2.89,20.32a2.65,2.65,0,0,1-.74,1.69c-1.48,1.52-5.48,4.29-13.49,1.43a1.46,1.46,0,0,1-.95-1.16l-3-18.57a2.56,2.56,0,0,1,1.06-2.51Z"/><path class="cls-12" d="M178.93,188.35s.49,5.54,2.78,8.39,6.73-1.85,7.39-3.22,1.74-9.94-5.15-9.94C179.48,183.58,178.7,186.35,178.93,188.35Z"/><path class="cls-48" d="M185.56,191.8a9.38,9.38,0,0,1-3.17-4.43s-.51-.3-3.33,2.06c0,0-3.18,0-1.7-3.36s7.59-7.59,10.53-4.24c0,0,5.6-.93,4.51,6.32-1.42,9.56-5.9,8-7,5.8S185.56,191.8,185.56,191.8Z"/><path class="cls-12" d="M184.12,190.68s.92-1.83,1.69-.74-.16,3.29-1.83,3.58Z"/><polygon class="cls-48" points="158.79 197.69 167.41 206.28 176.06 201.14 167.41 192.29 158.79 197.69"/><polyline class="cls-53" points="166.68 202.29 166.68 200.36 168.5 200.36 168.5 196.31"/><polyline class="cls-53" points="166.78 197.43 168.4 195.82 170.21 197.63"/><path class="cls-12" d="M162.53,201.41a12.53,12.53,0,0,1,1.21-1.33.22.22,0,0,1,.36.21l-.36,1.27s1.83-.51.8,2.51l-1.78.48Z"/><path class="cls-51" d="M164.7,204s9.45,17,3.83,18-5.89-17.48-5.89-17.48A2.07,2.07,0,0,1,164.7,204Z"/><path class="cls-51" d="M177.26,203.28s-2.54,1.27-6.07,6.3c-4.78,6.82-7,10.89-2.54,12.39,1.13.38,8.9-7.77,8.9-7.77S180.71,207.44,177.26,203.28Z"/><path class="cls-51" d="M183.16,199.83l.82-1.41a8.69,8.69,0,0,1,4.06-.91l1,.83S188.8,199.3,183.16,199.83Z"/><polygon class="cls-10" points="100.29 183.05 69.59 252.28 66.8 250.63 66.8 210.39 100.29 183.05"/><polygon class="cls-10" points="103.08 184.71 103.08 232.95 69.59 252.28 69.59 212.05 103.08 184.71"/><polygon class="cls-54" points="103.08 184.71 103.08 232.95 69.59 252.28 69.59 212.05 103.08 184.71"/><polygon class="cls-10" points="154.21 214.13 123.52 283.37 120.72 281.71 120.72 241.47 154.21 214.13"/><polygon class="cls-10" points="157 215.79 157 264.04 123.52 283.37 123.52 243.13 157 215.79"/><polygon class="cls-55" points="157 215.79 157 264.04 123.52 283.37 123.52 243.13 157 215.79"/><polygon class="cls-10" points="123.52 245.83 66.8 213.09 157 215.79 157 218.48 123.52 245.83"/><polygon class="cls-56" points="123.52 245.83 66.8 213.09 157 215.79 157 218.48 123.52 245.83"/><polygon class="cls-12" points="123.52 243.13 66.8 210.39 100.29 183.05 157 215.79 123.52 243.13"/><polygon class="cls-48" points="122.75 238.63 73.4 210.12 101.06 187.54 150.4 216.05 122.75 238.63"/><path class="cls-57" d="M110.27,213.67,91.47,202.8a.72.72,0,0,1-.1-1.18l9.91-8.09a1.66,1.66,0,0,1,1.87-.15l18.54,10.72a.92.92,0,0,1,.13,1.51l-9.69,7.91A1.65,1.65,0,0,1,110.27,213.67Z"/><path class="cls-58" d="M101.84,220.41,83,209.54a.71.71,0,0,1-.09-1.17l4.9-3.92a1.65,1.65,0,0,1,1.86-.15L108.25,215a.92.92,0,0,1,.12,1.51l-4.67,3.73A1.65,1.65,0,0,1,101.84,220.41Z"/><path class="cls-59" d="M111.35,226.1l-6.13-3.51a.72.72,0,0,1-.1-1.17L110,217.5a1.65,1.65,0,0,1,1.86-.15l5.87,3.36a.93.93,0,0,1,.12,1.52L113.21,226A1.65,1.65,0,0,1,111.35,226.1Z"/><path class="cls-60" d="M121,231.53l-6.54-3.87a.72.72,0,0,1-.1-1.18l4.91-3.91a1.65,1.65,0,0,1,1.86-.15l6.28,3.72a.92.92,0,0,1,.12,1.51l-4.67,3.73A1.65,1.65,0,0,1,121,231.53Z"/><polygon class="cls-10" points="123.52 245.83 123.52 243.13 66.8 210.39 66.8 213.09 123.52 245.83"/><path class="cls-61" d="M95.16,202.22c0-.1,9.13-.73,9.13-.73l1.75,3.17H117l-2.37-1.14"/><line class="cls-61" x1="116.98" y1="204.66" x2="116.98" y2="206.54"/><ellipse class="cls-43" cx="127.13" cy="208.42" rx="1.14" ry="0.66"/><ellipse class="cls-62" cx="130.43" cy="210.29" rx="1.14" ry="0.66"/><path class="cls-43" d="M134.53,212.64a1.76,1.76,0,0,1-1.61,0c-.45-.26-.45-.67,0-.93a1.76,1.76,0,0,1,1.61,0C135,212,135,212.38,134.53,212.64Z"/><path class="cls-43" d="M137.83,214.52a1.78,1.78,0,0,1-1.62,0,.49.49,0,0,1,0-.93,1.78,1.78,0,0,1,1.62,0A.49.49,0,0,1,137.83,214.52Z"/><path class="cls-43" d="M141.12,216.4a1.76,1.76,0,0,1-1.61,0c-.45-.26-.45-.67,0-.93a1.76,1.76,0,0,1,1.61,0C141.57,215.73,141.57,216.14,141.12,216.4Z"/><path class="cls-43" d="M125.23,210.94a1.76,1.76,0,0,1-1.61,0c-.45-.26-.45-.67,0-.93a1.76,1.76,0,0,1,1.61,0A.49.49,0,0,1,125.23,210.94Z"/><path class="cls-43" d="M128.52,212.82a1.76,1.76,0,0,1-1.61,0,.49.49,0,0,1,0-.93,1.76,1.76,0,0,1,1.61,0C129,212.15,129,212.56,128.52,212.82Z"/><path class="cls-43" d="M131.82,214.7a1.76,1.76,0,0,1-1.61,0c-.45-.26-.45-.67,0-.93a1.76,1.76,0,0,1,1.61,0A.49.49,0,0,1,131.82,214.7Z"/><path class="cls-62" d="M135.11,216.58a1.76,1.76,0,0,1-1.61,0,.49.49,0,0,1,0-.93,1.76,1.76,0,0,1,1.61,0C135.56,215.91,135.56,216.32,135.11,216.58Z"/><path class="cls-62" d="M138.41,218.46a1.76,1.76,0,0,1-1.61,0c-.45-.26-.45-.67,0-.93a1.76,1.76,0,0,1,1.61,0C138.86,217.79,138.86,218.2,138.41,218.46Z"/><path class="cls-62" d="M122.52,213a1.76,1.76,0,0,1-1.61,0c-.45-.26-.45-.67,0-.93a1.76,1.76,0,0,1,1.61,0A.49.49,0,0,1,122.52,213Z"/><path class="cls-43" d="M125.81,214.88a1.76,1.76,0,0,1-1.61,0,.49.49,0,0,1,0-.93,1.76,1.76,0,0,1,1.61,0C126.26,214.21,126.26,214.62,125.81,214.88Z"/><ellipse class="cls-62" cx="128.3" cy="216.29" rx="1.14" ry="0.66"/><path class="cls-43" d="M132.4,218.64a1.76,1.76,0,0,1-1.61,0,.49.49,0,0,1,0-.93,1.76,1.76,0,0,1,1.61,0C132.85,218,132.85,218.38,132.4,218.64Z"/><path class="cls-43" d="M135.7,220.52a1.76,1.76,0,0,1-1.61,0c-.45-.26-.45-.67,0-.93a1.76,1.76,0,0,1,1.61,0A.49.49,0,0,1,135.7,220.52Z"/><path class="cls-43" d="M119.81,215.06a1.76,1.76,0,0,1-1.61,0c-.45-.26-.45-.67,0-.93a1.76,1.76,0,0,1,1.61,0A.49.49,0,0,1,119.81,215.06Z"/><path class="cls-43" d="M123.1,216.94a1.76,1.76,0,0,1-1.61,0,.49.49,0,0,1,0-.93,1.76,1.76,0,0,1,1.61,0C123.55,216.27,123.55,216.68,123.1,216.94Z"/><path class="cls-43" d="M126.4,218.82a1.76,1.76,0,0,1-1.61,0c-.45-.26-.45-.67,0-.93a1.76,1.76,0,0,1,1.61,0A.49.49,0,0,1,126.4,218.82Z"/><path class="cls-43" d="M129.69,220.7a1.76,1.76,0,0,1-1.61,0,.49.49,0,0,1,0-.93,1.76,1.76,0,0,1,1.61,0C130.14,220,130.14,220.44,129.69,220.7Z"/><path class="cls-62" d="M133,222.58a1.76,1.76,0,0,1-1.61,0c-.45-.26-.45-.67,0-.93a1.76,1.76,0,0,1,1.61,0A.49.49,0,0,1,133,222.58Z"/><ellipse class="cls-62" cx="116.29" cy="216.66" rx="1.14" ry="0.66"/><ellipse class="cls-43" cx="119.59" cy="218.53" rx="1.14" ry="0.66"/><path class="cls-62" d="M123.69,220.88a1.76,1.76,0,0,1-1.61,0c-.45-.26-.45-.67,0-.93a1.76,1.76,0,0,1,1.61,0A.49.49,0,0,1,123.69,220.88Z"/><ellipse class="cls-43" cx="126.18" cy="222.29" rx="1.14" ry="0.66"/><path class="cls-62" d="M130.28,224.64a1.76,1.76,0,0,1-1.61,0c-.45-.26-.45-.67,0-.93a1.76,1.76,0,0,1,1.61,0A.49.49,0,0,1,130.28,224.64Z"/><line class="cls-63" x1="88.57" y1="206.3" x2="105.26" y2="216.07"/><line class="cls-63" x1="87.34" y1="207.28" x2="104.04" y2="217.04"/><line class="cls-63" x1="86.12" y1="208.25" x2="102.82" y2="218.01"/><path class="cls-48" d="M80,207.29s6.21,6.61,6.62,13.19l-1.21,2.58-2.51-1.82s-1.77-8.64-5-11.22Z"/><path class="cls-49" d="M65.4,284.73S65,288.82,67,288.61c2.33-.25,9.55-5.11,7.94-6.64s-7.63,1.24-7.63,1.24Z"/><path class="cls-49" d="M78.24,290.78s-.43,4.09,1.57,3.88c2.33-.25,9.55-5.11,7.94-6.64s-7.63,1.24-7.63,1.24Z"/><rect class="cls-12" x="72.12" y="188.83" width="4.28" height="6.05" transform="translate(148.53 383.7) rotate(180)"/><path class="cls-48" d="M81,221.45s6.89,15.73,1.72,69.73a.87.87,0,0,1-.43.66c-.91.53-3.19,1.45-4.38-1.6a.74.74,0,0,1,0-.25l-4.49-56.56c0-.91-.51-1-.6-.05L70,285.09a1,1,0,0,1-.63.87c-1.21.45-3.85,1-4.35-2.82,0,0-4.68-55.94.79-63.52Z"/><path class="cls-49" d="M65.79,217.89a2.6,2.6,0,0,0,.46.64c1.56,1.6,5.79,4.5,14.22,1.49a1.59,1.59,0,0,0,.5-.3v1.73a1.59,1.59,0,0,1-.5.3c-8.43,3-12.66.12-14.22-1.49a2.6,2.6,0,0,1-.46-.64Z"/><path class="cls-52" d="M76.41,192.83l-4.29-1L65.37,191c-1.66-.22-2.85,2.18-3,4.74-.22,4.87,3.05,21.45,3.05,21.45a2.81,2.81,0,0,0,.78,1.79c1.56,1.6,5.79,4.52,14.24,1.5a1.53,1.53,0,0,0,1-1.23l3.15-19.6A2.71,2.71,0,0,0,83.5,197Z"/><path class="cls-12" d="M81.74,181.22s-.52,5.85-2.94,8.85-7.11-1.95-7.8-3.4-1.83-10.49,5.44-10.49C81.15,176.18,82,179.11,81.74,181.22Z"/><path class="cls-48" d="M74.74,184.86a9.9,9.9,0,0,0,3.35-4.67s.53-.32,3.51,2.17c0,0,3.35,0,1.79-3.54s-8-8-11.11-4.48c0,0-5.91-1-4.77,6.67,1.51,10.08,6.23,8.42,7.41,6.12S74.74,184.86,74.74,184.86Z"/><path class="cls-12" d="M76.26,183.68s-1-1.93-1.79-.78.17,3.47,1.93,3.77Z"/><path class="cls-12" d="M111.67,218.14a11.53,11.53,0,0,1,1.08,1.56.23.23,0,0,1-.31.32l-1.21-.67s.08,2-2.78.22l-.06-1.95Z"/><path class="cls-51" d="M109,217.55s-17.83-10.12-19-4.2,18.39,6.38,18.39,6.38A2.21,2.21,0,0,0,109,217.55Z"/><path class="cls-51" d="M83.5,197s2.68,1.34,6.4,6.64c5,7.2,7.38,11.5,2.68,13.08-1.18.4-9.39-8.2-9.39-8.2S79.86,201.37,83.5,197Z"/><path class="cls-51" d="M77.27,193.33l-.86-1.48a9.15,9.15,0,0,0-4.29-1l-1,.87S71.32,192.78,77.27,193.33Z"/><path class="cls-64" d="M270.12,84.83c3.53,9.57,16.65,21.85,27.44,17.25,5.34-2.28,8.25-9.75,4.68-14.33-2.54-3.24-7.11-4-10.39-6.54-2.93-2.23-4.65-5.65-6.87-8.59s-5.51-5.63-9.17-5.22c-7.68.86-7.69,11.45-5.89,16.87C270,84.45,270.05,84.64,270.12,84.83Z"/></g></g></svg>